<svg width="43" height="48" viewBox="0 0 43 48" fill="none" xmlns="http://www.w3.org/2000/svg">
<path d="M8.43506 14.4692H11.2467V17.2809H8.43506V14.4692Z" fill="#5A73EF"/>
<path d="M8.43506 25.7158H11.2467V28.5275H8.43506V25.7158Z" fill="#5A73EF"/>
<path d="M33.2968 27.4835C34.3343 27.4835 35.3409 27.6194 36.2987 27.8753V4.21785C36.2987 3.44183 35.6689 2.81201 34.8929 2.81201H30.6707C30.6707 6.47188 27.6931 9.44944 24.0333 9.44944H12.2655C10.436 9.44944 8.77618 8.70529 7.57466 7.50282C6.3722 6.3013 5.62804 4.64148 5.62804 2.81201H1.40584C0.629816 2.81201 0 3.44183 0 4.21785V39.5512H21.648C21.3819 33.0694 26.6444 27.4835 33.2968 27.4835ZM26.3032 11.6575H28.3323C29.1083 11.6575 29.7382 12.2874 29.7382 13.0634C29.7382 13.8394 29.1083 14.4692 28.3323 14.4692H26.3032C25.5272 14.4692 24.8974 13.8394 24.8974 13.0634C24.8974 12.2874 25.5272 11.6575 26.3032 11.6575ZM18.2759 11.6575H21.2422C22.0182 11.6575 22.6481 12.2874 22.6481 13.0634C22.6481 13.8394 22.0182 14.4692 21.2422 14.4692H18.2759C17.4999 14.4692 16.8701 13.8394 16.8701 13.0634C16.8701 12.2874 17.4999 11.6575 18.2759 11.6575ZM18.2759 17.2809H28.3323C29.1083 17.2809 29.7382 17.9107 29.7382 18.6867C29.7382 19.4637 29.1083 20.0926 28.3323 20.0926H18.2759C17.4999 20.0926 16.8701 19.4637 16.8701 18.6867C16.8701 17.9107 17.4999 17.2809 18.2759 17.2809ZM14.0584 29.9334C14.0584 30.7104 13.4286 31.3393 12.6525 31.3393H7.02919C6.25317 31.3393 5.62335 30.7104 5.62335 29.9334V24.3101C5.62335 23.5341 6.25317 22.9042 7.02919 22.9042H12.6525C13.4286 22.9042 14.0584 23.5341 14.0584 24.3101V29.9334ZM14.0584 18.6867C14.0584 19.4637 13.4286 20.0926 12.6525 20.0926H7.02919C6.25317 20.0926 5.62335 19.4637 5.62335 18.6867V13.0634C5.62335 12.2874 6.25317 11.6575 7.02919 11.6575H12.6525C13.4286 11.6575 14.0584 12.2874 14.0584 13.0634V18.6867ZM16.8701 24.4619C16.8701 23.6859 17.4999 23.0561 18.2759 23.0561H28.3323C29.1083 23.0561 29.7382 23.6859 29.7382 24.4619C29.7382 25.2379 29.1083 25.8678 28.3323 25.8678H18.2759C17.4999 25.8678 16.8701 25.2379 16.8701 24.4619Z" fill="#5A73EF"/>
<path d="M12.2657 6.63743H24.0335C26.1432 6.63743 27.8593 4.92137 27.8593 2.81168V1.40584C27.8593 0.629815 27.2304 0 26.4534 0H9.84578C9.06882 0 8.43994 0.629815 8.43994 1.40584V2.81168C8.43994 4.92137 10.156 6.63743 12.2657 6.63743Z" fill="#5A73EF"/>
<path d="M33.2969 30.2949C28.4196 30.2949 24.4514 34.2631 24.4514 39.1405C24.4514 44.03 28.4149 47.986 33.2969 47.986C38.2755 47.986 42.1425 43.9119 42.1425 39.1405C42.1425 34.3681 38.2746 30.2949 33.2969 30.2949ZM37.8134 37.9633L33.4703 42.3064C32.9211 42.8556 32.0298 42.8537 31.4825 42.3064L28.7814 39.6044C28.2322 39.0561 28.2322 38.1657 28.7814 37.6165C29.3297 37.0673 30.22 37.0673 30.7692 37.6165L32.4769 39.3242L35.8246 35.9754C36.3739 35.4262 37.2642 35.4262 37.8134 35.9754C38.3626 36.5247 38.3626 37.4141 37.8134 37.9633Z" fill="#5A73EF"/>
<path d="M25.7203 47.9997C21.3013 47.9988 13.8906 47.9857 1.40584 47.9857C0.629815 47.9857 0 47.3558 0 46.5798V42.3623H22.0885C22.7242 44.5875 24.0151 46.5462 25.7203 47.9997Z" fill="#5A73EF"/>
</svg>
